<svg width="551" height="570" viewBox="0 0 551 570" fill="none" xmlns="http://www.w3.org/2000/svg">
<circle cx="54" cy="405" r="4" fill="#FFB288" fill-opacity="0.63"/>
<circle cx="94" cy="405" r="4" fill="#FFB288" fill-opacity="0.63"/>
<circle cx="64" cy="405" r="4" fill="#FFB288" fill-opacity="0.63"/>
<circle cx="104" cy="405" r="4" fill="#FFB288" fill-opacity="0.63"/>
<circle cx="74" cy="405" r="4" fill="#FFB288" fill-opacity="0.63"/>
<circle cx="114" cy="405" r="4" fill="#FFB288" fill-opacity="0.63"/>
<circle cx="84" cy="405" r="4" fill="#FFB288" fill-opacity="0.63"/>
<circle cx="124" cy="405" r="4" fill="#FFB288" fill-opacity="0.63"/>
<circle cx="54" cy="414" r="4" fill="#FFB288" fill-opacity="0.63"/>
<circle cx="94" cy="414" r="4" fill="#FFB288" fill-opacity="0.63"/>
<circle cx="64" cy="414" r="4" fill="#FFB288" fill-opacity="0.63"/>
<circle cx="104" cy="414" r="4" fill="#FFB288" fill-opacity="0.63"/>
<circle cx="74" cy="414" r="4" fill="#FFB288" fill-opacity="0.63"/>
<circle cx="114" cy="414" r="4" fill="#FFB288" fill-opacity="0.63"/>
<circle cx="84" cy="414" r="4" fill="#FFB288" fill-opacity="0.63"/>
<circle cx="124" cy="414" r="4" fill="#FFB288" fill-opacity="0.63"/>
<circle cx="54" cy="423" r="4" fill="#FFB288" fill-opacity="0.63"/>
<circle cx="94" cy="423" r="4" fill="#FFB288" fill-opacity="0.63"/>
<circle cx="64" cy="423" r="4" fill="#FFB288" fill-opacity="0.63"/>
<circle cx="104" cy="423" r="4" fill="#FFB288" fill-opacity="0.63"/>
<circle cx="74" cy="423" r="4" fill="#FFB288" fill-opacity="0.63"/>
<circle cx="114" cy="423" r="4" fill="#FFB288" fill-opacity="0.63"/>
<circle cx="84" cy="423" r="4" fill="#FFB288" fill-opacity="0.63"/>
<circle cx="124" cy="423" r="4" fill="#FFB288" fill-opacity="0.63"/>
<circle cx="54" cy="432" r="4" fill="#FFB288" fill-opacity="0.63"/>
<circle cx="94" cy="432" r="4" fill="#FFB288" fill-opacity="0.63"/>
<circle cx="64" cy="432" r="4" fill="#FFB288" fill-opacity="0.63"/>
<circle cx="104" cy="432" r="4" fill="#FFB288" fill-opacity="0.63"/>
<circle cx="74" cy="432" r="4" fill="#FFB288" fill-opacity="0.63"/>
<circle cx="114" cy="432" r="4" fill="#FFB288" fill-opacity="0.63"/>
<circle cx="84" cy="432" r="4" fill="#FFB288" fill-opacity="0.63"/>
<circle cx="124" cy="432" r="4" fill="#FFB288" fill-opacity="0.63"/>
<circle cx="54" cy="441" r="4" fill="#FFB288" fill-opacity="0.63"/>
<circle cx="94" cy="441" r="4" fill="#FFB288" fill-opacity="0.63"/>
<circle cx="64" cy="441" r="4" fill="#FFB288" fill-opacity="0.63"/>
<circle cx="104" cy="441" r="4" fill="#FFB288" fill-opacity="0.63"/>
<circle cx="74" cy="441" r="4" fill="#FFB288" fill-opacity="0.63"/>
<circle cx="114" cy="441" r="4" fill="#FFB288" fill-opacity="0.63"/>
<circle cx="84" cy="441" r="4" fill="#FFB288" fill-opacity="0.63"/>
<circle cx="124" cy="441" r="4" fill="#FFB288" fill-opacity="0.63"/>
<circle cx="55" cy="450" r="4" fill="#FFB288" fill-opacity="0.63"/>
<circle cx="95" cy="450" r="4" fill="#FFB288" fill-opacity="0.63"/>
<circle cx="65" cy="450" r="4" fill="#FFB288" fill-opacity="0.63"/>
<circle cx="105" cy="450" r="4" fill="#FFB288" fill-opacity="0.63"/>
<circle cx="75" cy="450" r="4" fill="#FFB288" fill-opacity="0.63"/>
<circle cx="115" cy="450" r="4" fill="#FFB288" fill-opacity="0.63"/>
<circle cx="85" cy="450" r="4" fill="#FFB288" fill-opacity="0.63"/>
<circle cx="125" cy="450" r="4" fill="#FFB288" fill-opacity="0.63"/>
<circle cx="55" cy="459" r="4" fill="#FFB288" fill-opacity="0.63"/>
<circle cx="95" cy="459" r="4" fill="#FFB288" fill-opacity="0.63"/>
<circle cx="65" cy="459" r="4" fill="#FFB288" fill-opacity="0.63"/>
<circle cx="105" cy="459" r="4" fill="#FFB288" fill-opacity="0.63"/>
<circle cx="75" cy="459" r="4" fill="#FFB288" fill-opacity="0.63"/>
<circle cx="115" cy="459" r="4" fill="#FFB288" fill-opacity="0.63"/>
<circle cx="85" cy="459" r="4" fill="#FFB288" fill-opacity="0.63"/>
<circle cx="125" cy="459" r="4" fill="#FFB288" fill-opacity="0.63"/>
<circle cx="55" cy="468" r="4" fill="#FFB288" fill-opacity="0.63"/>
<circle cx="95" cy="468" r="4" fill="#FFB288" fill-opacity="0.63"/>
<circle cx="65" cy="468" r="4" fill="#FFB288" fill-opacity="0.63"/>
<circle cx="105" cy="468" r="4" fill="#FFB288" fill-opacity="0.63"/>
<circle cx="75" cy="468" r="4" fill="#FFB288" fill-opacity="0.63"/>
<circle cx="115" cy="468" r="4" fill="#FFB288" fill-opacity="0.63"/>
<circle cx="85" cy="468" r="4" fill="#FFB288" fill-opacity="0.63"/>
<circle cx="125" cy="468" r="4" fill="#FFB288" fill-opacity="0.63"/>
<circle cx="327" cy="444" r="4" fill="#FFB288" fill-opacity="0.63"/>
<circle cx="367" cy="444" r="4" fill="#FFB288" fill-opacity="0.63"/>
<circle cx="337" cy="444" r="4" fill="#FFB288" fill-opacity="0.63"/>
<circle cx="377" cy="444" r="4" fill="#FFB288" fill-opacity="0.63"/>
<circle cx="347" cy="444" r="4" fill="#FFB288" fill-opacity="0.63"/>
<circle cx="387" cy="444" r="4" fill="#FFB288" fill-opacity="0.63"/>
<circle cx="357" cy="444" r="4" fill="#FFB288" fill-opacity="0.63"/>
<circle cx="397" cy="444" r="4" fill="#FFB288" fill-opacity="0.63"/>
<circle cx="327" cy="453" r="4" fill="#FFB288" fill-opacity="0.63"/>
<circle cx="367" cy="453" r="4" fill="#FFB288" fill-opacity="0.63"/>
<circle cx="337" cy="453" r="4" fill="#FFB288" fill-opacity="0.63"/>
<circle cx="377" cy="453" r="4" fill="#FFB288" fill-opacity="0.63"/>
<circle cx="347" cy="453" r="4" fill="#FFB288" fill-opacity="0.63"/>
<circle cx="387" cy="453" r="4" fill="#FFB288" fill-opacity="0.63"/>
<circle cx="357" cy="453" r="4" fill="#FFB288" fill-opacity="0.63"/>
<circle cx="397" cy="453" r="4" fill="#FFB288" fill-opacity="0.63"/>
<circle cx="327" cy="462" r="4" fill="#FFB288" fill-opacity="0.63"/>
<circle cx="367" cy="462" r="4" fill="#FFB288" fill-opacity="0.63"/>
<circle cx="337" cy="462" r="4" fill="#FFB288" fill-opacity="0.63"/>
<circle cx="377" cy="462" r="4" fill="#FFB288" fill-opacity="0.63"/>
<circle cx="347" cy="462" r="4" fill="#FFB288" fill-opacity="0.63"/>
<circle cx="387" cy="462" r="4" fill="#FFB288" fill-opacity="0.63"/>
<circle cx="357" cy="462" r="4" fill="#FFB288" fill-opacity="0.63"/>
<circle cx="397" cy="462" r="4" fill="#FFB288" fill-opacity="0.63"/>
<circle cx="327" cy="471" r="4" fill="#FFB288" fill-opacity="0.63"/>
<circle cx="367" cy="471" r="4" fill="#FFB288" fill-opacity="0.63"/>
<circle cx="337" cy="471" r="4" fill="#FFB288" fill-opacity="0.63"/>
<circle cx="377" cy="471" r="4" fill="#FFB288" fill-opacity="0.63"/>
<circle cx="347" cy="471" r="4" fill="#FFB288" fill-opacity="0.63"/>
<circle cx="387" cy="471" r="4" fill="#FFB288" fill-opacity="0.63"/>
<circle cx="357" cy="471" r="4" fill="#FFB288" fill-opacity="0.63"/>
<circle cx="397" cy="471" r="4" fill="#FFB288" fill-opacity="0.63"/>
<circle cx="327" cy="480" r="4" fill="#FFB288" fill-opacity="0.63"/>
<circle cx="367" cy="480" r="4" fill="#FFB288" fill-opacity="0.63"/>
<circle cx="337" cy="480" r="4" fill="#FFB288" fill-opacity="0.63"/>
<circle cx="377" cy="480" r="4" fill="#FFB288" fill-opacity="0.63"/>
<circle cx="347" cy="480" r="4" fill="#FFB288" fill-opacity="0.63"/>
<circle cx="387" cy="480" r="4" fill="#FFB288" fill-opacity="0.63"/>
<circle cx="357" cy="480" r="4" fill="#FFB288" fill-opacity="0.63"/>
<circle cx="397" cy="480" r="4" fill="#FFB288" fill-opacity="0.63"/>
<circle cx="328" cy="489" r="4" fill="#FFB288" fill-opacity="0.63"/>
<circle cx="368" cy="489" r="4" fill="#FFB288" fill-opacity="0.63"/>
<circle cx="338" cy="489" r="4" fill="#FFB288" fill-opacity="0.63"/>
<circle cx="378" cy="489" r="4" fill="#FFB288" fill-opacity="0.63"/>
<circle cx="348" cy="489" r="4" fill="#FFB288" fill-opacity="0.63"/>
<circle cx="388" cy="489" r="4" fill="#FFB288" fill-opacity="0.63"/>
<circle cx="358" cy="489" r="4" fill="#FFB288" fill-opacity="0.63"/>
<circle cx="398" cy="489" r="4" fill="#FFB288" fill-opacity="0.63"/>
<circle cx="328" cy="498" r="4" fill="#FFB288" fill-opacity="0.63"/>
<circle cx="368" cy="498" r="4" fill="#FFB288" fill-opacity="0.63"/>
<circle cx="338" cy="498" r="4" fill="#FFB288" fill-opacity="0.63"/>
<circle cx="378" cy="498" r="4" fill="#FFB288" fill-opacity="0.63"/>
<circle cx="348" cy="498" r="4" fill="#FFB288" fill-opacity="0.63"/>
<circle cx="388" cy="498" r="4" fill="#FFB288" fill-opacity="0.63"/>
<circle cx="358" cy="498" r="4" fill="#FFB288" fill-opacity="0.63"/>
<circle cx="398" cy="498" r="4" fill="#FFB288" fill-opacity="0.63"/>
<circle cx="328" cy="507" r="4" fill="#FFB288" fill-opacity="0.63"/>
<circle cx="368" cy="507" r="4" fill="#FFB288" fill-opacity="0.63"/>
<circle cx="338" cy="507" r="4" fill="#FFB288" fill-opacity="0.63"/>
<circle cx="378" cy="507" r="4" fill="#FFB288" fill-opacity="0.63"/>
<circle cx="348" cy="507" r="4" fill="#FFB288" fill-opacity="0.63"/>
<circle cx="388" cy="507" r="4" fill="#FFB288" fill-opacity="0.63"/>
<circle cx="358" cy="507" r="4" fill="#FFB288" fill-opacity="0.63"/>
<circle cx="398" cy="507" r="4" fill="#FFB288" fill-opacity="0.63"/>
<circle cx="236" cy="63" r="4" fill="#FFB288" fill-opacity="0.63"/>
<circle cx="276" cy="63" r="4" fill="#FFB288" fill-opacity="0.63"/>
<circle cx="246" cy="63" r="4" fill="#FFB288" fill-opacity="0.63"/>
<circle cx="286" cy="63" r="4" fill="#FFB288" fill-opacity="0.63"/>
<circle cx="256" cy="63" r="4" fill="#FFB288" fill-opacity="0.63"/>
<circle cx="296" cy="63" r="4" fill="#FFB288" fill-opacity="0.63"/>
<circle cx="266" cy="63" r="4" fill="#FFB288" fill-opacity="0.63"/>
<circle cx="306" cy="63" r="4" fill="#FFB288" fill-opacity="0.63"/>
<circle cx="236" cy="72" r="4" fill="#FFB288" fill-opacity="0.63"/>
<circle cx="276" cy="72" r="4" fill="#FFB288" fill-opacity="0.63"/>
<circle cx="246" cy="72" r="4" fill="#FFB288" fill-opacity="0.63"/>
<circle cx="286" cy="72" r="4" fill="#FFB288" fill-opacity="0.63"/>
<circle cx="256" cy="72" r="4" fill="#FFB288" fill-opacity="0.63"/>
<circle cx="296" cy="72" r="4" fill="#FFB288" fill-opacity="0.63"/>
<circle cx="266" cy="72" r="4" fill="#FFB288" fill-opacity="0.63"/>
<circle cx="306" cy="72" r="4" fill="#FFB288" fill-opacity="0.63"/>
<circle cx="236" cy="81" r="4" fill="#FFB288" fill-opacity="0.63"/>
<circle cx="276" cy="81" r="4" fill="#FFB288" fill-opacity="0.63"/>
<circle cx="246" cy="81" r="4" fill="#FFB288" fill-opacity="0.63"/>
<circle cx="286" cy="81" r="4" fill="#FFB288" fill-opacity="0.63"/>
<circle cx="256" cy="81" r="4" fill="#FFB288" fill-opacity="0.63"/>
<circle cx="296" cy="81" r="4" fill="#FFB288" fill-opacity="0.63"/>
<circle cx="266" cy="81" r="4" fill="#FFB288" fill-opacity="0.63"/>
<circle cx="306" cy="81" r="4" fill="#FFB288" fill-opacity="0.63"/>
<circle cx="236" cy="90" r="4" fill="#FFB288" fill-opacity="0.63"/>
<circle cx="276" cy="90" r="4" fill="#FFB288" fill-opacity="0.63"/>
<circle cx="246" cy="90" r="4" fill="#FFB288" fill-opacity="0.63"/>
<circle cx="286" cy="90" r="4" fill="#FFB288" fill-opacity="0.63"/>
<circle cx="256" cy="90" r="4" fill="#FFB288" fill-opacity="0.63"/>
<circle cx="296" cy="90" r="4" fill="#FFB288" fill-opacity="0.63"/>
<circle cx="266" cy="90" r="4" fill="#FFB288" fill-opacity="0.63"/>
<circle cx="306" cy="90" r="4" fill="#FFB288" fill-opacity="0.63"/>
<circle cx="236" cy="99" r="4" fill="#FFB288" fill-opacity="0.63"/>
<circle cx="276" cy="99" r="4" fill="#FFB288" fill-opacity="0.63"/>
<circle cx="246" cy="99" r="4" fill="#FFB288" fill-opacity="0.63"/>
<circle cx="286" cy="99" r="4" fill="#FFB288" fill-opacity="0.63"/>
<circle cx="256" cy="99" r="4" fill="#FFB288" fill-opacity="0.63"/>
<circle cx="296" cy="99" r="4" fill="#FFB288" fill-opacity="0.63"/>
<circle cx="266" cy="99" r="4" fill="#FFB288" fill-opacity="0.63"/>
<circle cx="306" cy="99" r="4" fill="#FFB288" fill-opacity="0.63"/>
<circle cx="237" cy="108" r="4" fill="#FFB288" fill-opacity="0.63"/>
<circle cx="277" cy="108" r="4" fill="#FFB288" fill-opacity="0.63"/>
<circle cx="247" cy="108" r="4" fill="#FFB288" fill-opacity="0.63"/>
<circle cx="287" cy="108" r="4" fill="#FFB288" fill-opacity="0.63"/>
<circle cx="257" cy="108" r="4" fill="#FFB288" fill-opacity="0.63"/>
<circle cx="297" cy="108" r="4" fill="#FFB288" fill-opacity="0.63"/>
<circle cx="267" cy="108" r="4" fill="#FFB288" fill-opacity="0.63"/>
<circle cx="307" cy="108" r="4" fill="#FFB288" fill-opacity="0.63"/>
<circle cx="237" cy="117" r="4" fill="#FFB288" fill-opacity="0.63"/>
<circle cx="277" cy="117" r="4" fill="#FFB288" fill-opacity="0.63"/>
<circle cx="247" cy="117" r="4" fill="#FFB288" fill-opacity="0.63"/>
<circle cx="287" cy="117" r="4" fill="#FFB288" fill-opacity="0.63"/>
<circle cx="257" cy="117" r="4" fill="#FFB288" fill-opacity="0.63"/>
<circle cx="297" cy="117" r="4" fill="#FFB288" fill-opacity="0.63"/>
<circle cx="267" cy="117" r="4" fill="#FFB288" fill-opacity="0.63"/>
<circle cx="307" cy="117" r="4" fill="#FFB288" fill-opacity="0.63"/>
<circle cx="237" cy="126" r="4" fill="#FFB288" fill-opacity="0.63"/>
<circle cx="277" cy="126" r="4" fill="#FFB288" fill-opacity="0.63"/>
<circle cx="247" cy="126" r="4" fill="#FFB288" fill-opacity="0.63"/>
<circle cx="287" cy="126" r="4" fill="#FFB288" fill-opacity="0.63"/>
<circle cx="257" cy="126" r="4" fill="#FFB288" fill-opacity="0.63"/>
<circle cx="297" cy="126" r="4" fill="#FFB288" fill-opacity="0.63"/>
<circle cx="267" cy="126" r="4" fill="#FFB288" fill-opacity="0.63"/>
<circle cx="307" cy="126" r="4" fill="#FFB288" fill-opacity="0.63"/>
<ellipse cx="20.7297" cy="20.7694" rx="20.7297" ry="20.7694" transform="matrix(-0.501302 -0.865272 0.860936 -0.508713 35.5313 399.937)" fill="#FFCA41"/>
<path d="M30.1524 346.061C39.7909 340.366 52.1439 343.588 57.7442 353.254C63.3446 362.921 60.0732 375.374 50.4347 381.07C40.7962 386.765 28.4432 383.543 22.8429 373.877C17.2425 364.21 20.5138 351.756 30.1524 346.061Z" stroke="#1AA1CB"/>
<path d="M58.8664 372.464L60.8755 369.749L58.5778 367.645L61.0978 369.477L63.3577 366.967L61.3487 369.682L63.6464 371.786L61.1264 369.954L58.8664 372.464Z" fill="#716262"/>
<ellipse cx="38" cy="38.0411" rx="38" ry="38.0411" transform="matrix(0.935796 0.352543 -0.345173 0.938539 79.2615 135)" fill="#FFCA41"/>
<path d="M149.783 205.32C142.626 224.78 121.113 234.635 101.733 227.333C82.3521 220.032 72.4417 198.339 79.5984 178.879C86.7552 159.42 108.268 149.565 127.649 156.866C147.029 164.167 156.94 185.86 149.783 205.32Z" stroke="#1AA1CB"/>
<path d="M77.9998 201L78.2968 207.178L83.9998 207.5L78.2968 207.822L77.9998 214L77.7028 207.822L71.9998 207.5L77.7028 207.178L77.9998 201Z" fill="#716262"/>
<ellipse cx="26.3343" cy="24.3931" rx="26.3343" ry="24.3931" transform="matrix(-0.529544 -0.848282 0.878186 -0.478318 167.674 558.35)" fill="#FFCA41"/>
<path d="M157.615 492.742C169.172 486.447 184.703 491.094 192.278 503.228C199.853 515.363 196.533 530.277 184.975 536.571C173.418 542.866 157.887 538.22 150.312 526.085C142.738 513.951 146.057 499.037 157.615 492.742Z" stroke="#1AA1CB"/>
<path d="M194.78 526.573L197.092 523.414L194.124 520.726L197.349 523.099L199.984 520.204L197.672 523.362L200.639 526.05L197.414 523.678L194.78 526.573Z" fill="#716262"/>
<ellipse cx="32.1908" cy="31.3976" rx="32.1908" ry="31.3976" transform="matrix(-0.511279 -0.859415 0.866804 -0.498649 336.703 529.866)" fill="#FFCA41"/>
<path d="M326.851 447.22C341.632 438.717 360.881 443.997 369.836 459.049C378.791 474.101 374.038 493.188 359.257 501.692C344.475 510.195 325.226 504.915 316.272 489.863C307.317 474.811 312.07 455.724 326.851 447.22Z" stroke="#1AA1CB"/>
<path d="M371.855 488.539L374.872 484.447L371.283 481.173L375.207 484.037L378.615 480.265L375.598 484.357L379.187 487.631L375.263 484.766L371.855 488.539Z" fill="#716262"/>
<path d="M35.0463 235.077C36.1666 233.347 37.4131 229.993 42.0131 227.886C46.6132 225.779 48.6801 222.571 49.3454 220.354" stroke="#FFCA41" stroke-width="9" stroke-linecap="round"/>
<path d="M103.683 122.129C105.599 122.891 109.131 123.461 112.093 127.563C115.056 131.665 118.604 133.067 120.909 133.288" stroke="#1AA1CB" stroke-width="9" stroke-linecap="round"/>
<path d="M11.5348 391.663C12.8336 393.264 15.6367 395.487 16.2164 400.513C16.7962 405.539 19.2065 408.498 21.1095 409.817" stroke="#FF5B02" stroke-width="9" stroke-linecap="round"/>
<path d="M401 517.194C403 516.694 406.2 515.094 411 516.694C415.8 518.294 419.5 517.361 421.5 516.194" stroke="#1AA1CB" stroke-width="9" stroke-linecap="round"/>
<path d="M51.0353 495.611C52.5906 496.965 55.7348 498.672 57.1721 503.523C58.6093 508.374 61.4934 510.873 63.5951 511.844" stroke="black" stroke-width="9" stroke-linecap="round"/>
<path d="M296.352 529.09C297.001 531.047 298.838 534.117 297.604 539.024C296.369 543.931 297.579 547.55 298.893 549.456" stroke="#FF5B02" stroke-width="9" stroke-linecap="round"/>
<mask id="mask0_35_275" style="mask-type:alpha" maskUnits="userSpaceOnUse" x="25" y="-22" width="526" height="545">
<mask id="mask1_35_275" style="mask-type:alpha" maskUnits="userSpaceOnUse" x="23" y="-22" width="528" height="545">
<rect x="23.8942" y="-22" width="527.106" height="545" fill="#D9D9D9"/>
</mask>
<g mask="url(#mask1_35_275)">
<rect width="367.122" height="728.384" rx="183.561" transform="matrix(0.629417 0.777068 -0.770953 0.636892 512.234 -151.913)" fill="#A3A3A3"/>
</g>
</mask>
<g mask="url(#mask0_35_275)">
<rect x="-0.283242" y="2.82966" width="357.145" height="692.529" rx="178.573" transform="matrix(0.628935 0.777458 -0.770557 0.637372 495.437 -130.754)" stroke="black" stroke-width="4"/>
<mask id="mask2_35_275" style="mask-type:alpha" maskUnits="userSpaceOnUse" x="40" y="-4" width="511" height="511">
<rect x="40" y="-4" width="511" height="511" fill="#D9D9D9"/>
</mask>
<g mask="url(#mask2_35_275)">
<rect width="330.163" height="694.956" rx="165.082" transform="matrix(0.642062 0.766653 -0.781255 0.624212 515.938 -122.8)" fill="#00C2FF"/>
</g>
</g>
</svg>
